<svg width="101" height="74" viewBox="0 0 512 512" fill="none" xmlns="http://www.w3.org/2000/svg">
<path d="M456 64H312V40C311.993 33.637 309.462 27.5368 304.963 23.0375C300.464 18.5382 294.363 16.0073 288 16H112C105.638 16.0073 99.5373 18.5382 95.038 23.0375C90.5387 27.5368 88.0078 33.637 88.0005 40V204.687L47.0303 245.657C44.7946 247.88 43.0221 250.525 41.8155 253.438C40.6088 256.351 39.9919 259.474 40.0005 262.627V330.745C40.009 333.898 39.3922 337.021 38.1856 339.935C36.979 342.848 35.2067 345.492 32.9712 347.716L10.3438 370.343L21.6572 381.657L44.2847 359.029C48.0107 355.324 50.9648 350.916 52.9758 346.061C54.9869 341.206 56.0149 336 56.0005 330.745V262.627C55.9976 261.576 56.2033 260.535 56.6055 259.564C57.0077 258.593 57.5985 257.711 58.3438 256.97L101.657 213.657C103.015 212.297 104.628 211.219 106.403 210.483C108.178 209.747 110.08 209.368 112.002 209.368C113.923 209.367 115.826 209.746 117.601 210.481C119.377 211.216 120.99 212.293 122.348 213.652C123.707 215.011 124.785 216.624 125.52 218.399C126.255 220.174 126.633 222.077 126.633 223.999C126.632 225.92 126.253 227.823 125.517 229.598C124.781 231.373 123.703 232.985 122.344 234.343L95.0303 261.657C92.7946 263.88 91.0221 266.525 89.8155 269.438C88.6088 272.351 87.9919 275.474 88.0005 278.627V307.313L98.9121 318.225C105.619 324.895 110.936 332.83 114.556 341.569C118.176 350.308 120.026 359.678 120 369.137V384C120.008 390.363 122.539 396.463 127.038 400.963C131.537 405.462 137.638 407.993 144 408H164.687L147.716 424.971C145.493 427.206 142.848 428.979 139.935 430.185C137.022 431.392 133.899 432.009 130.746 432H117.255C112 431.986 106.795 433.014 101.94 435.025C97.0847 437.036 92.6768 439.99 88.9712 443.716L42.3438 490.343L53.6572 501.657L100.285 455.029C102.508 452.794 105.153 451.021 108.066 449.815C110.979 448.608 114.102 447.991 117.255 448H130.746C136.001 448.014 141.206 446.986 146.061 444.975C150.916 442.964 155.324 440.01 159.03 436.284L187.314 408H256V456C256.012 466.605 260.231 476.772 267.729 484.271C275.228 491.77 285.396 495.988 296 496H456C466.605 495.988 476.773 491.77 484.272 484.271C491.77 476.772 495.989 466.605 496 456V104C495.989 93.395 491.77 83.2278 484.272 75.7289C476.773 68.2301 466.605 64.012 456 64V64ZM312 128H448V208H336L336 207.968V205.223C336.048 200.682 334.784 196.223 332.36 192.383C329.936 188.543 326.455 185.485 322.335 183.575L328.97 176.939C331.206 174.716 332.979 172.071 334.186 169.158C335.392 166.245 336.009 163.121 336 159.968V157.223C336.051 152.465 334.663 147.802 332.019 143.846C329.376 139.89 325.6 136.824 321.185 135.049C318.273 133.836 315.154 133.2 312 133.176V128ZM306.344 151.566C307.054 150.818 307.909 150.223 308.857 149.816C309.805 149.409 310.826 149.199 311.857 149.199C312.956 149.203 314.044 149.418 315.062 149.832C316.536 150.42 317.797 151.441 318.679 152.76C319.56 154.08 320.021 155.636 320 157.223V159.968C320.003 161.019 319.798 162.06 319.396 163.031C318.993 164.002 318.402 164.884 317.657 165.625L301.657 181.625C300.538 182.744 299.113 183.506 297.561 183.814C296.009 184.123 294.401 183.964 292.939 183.359C291.477 182.753 290.228 181.728 289.349 180.412C288.47 179.097 288 177.55 288 175.968V173.223C287.998 172.172 288.203 171.131 288.605 170.16C289.008 169.189 289.599 168.307 290.344 167.566L306.344 151.566ZM301.657 325.625C300.538 326.744 299.113 327.506 297.561 327.814C296.009 328.123 294.401 327.964 292.939 327.359C291.477 326.753 290.228 325.728 289.349 324.412C288.47 323.097 288 321.55 288 319.968V317.223C287.998 316.172 288.203 315.131 288.605 314.16C289.008 313.189 289.599 312.307 290.344 311.566L306.344 295.566C307.054 294.818 307.909 294.223 308.857 293.816C309.805 293.409 310.826 293.199 311.857 293.199C312.956 293.203 314.044 293.418 315.062 293.832C316.536 294.42 317.797 295.441 318.679 296.76C319.56 298.08 320.021 299.636 320 301.223V303.968C320.003 305.019 319.798 306.06 319.396 307.031C318.993 308.002 318.402 308.884 317.657 309.625L301.657 325.625ZM312 384H320V400H305.87C309.821 395.608 312.005 389.908 312 384V384ZM317.657 261.625L301.657 277.625C300.538 278.744 299.113 279.506 297.561 279.814C296.009 280.123 294.401 279.964 292.939 279.359C291.477 278.753 290.228 277.728 289.349 276.412C288.47 275.097 288 273.55 288 271.968V269.223C287.998 268.172 288.203 267.131 288.605 266.16C289.008 265.189 289.599 264.307 290.344 263.566L306.344 247.566C307.054 246.818 307.909 246.223 308.857 245.816C309.805 245.409 310.826 245.199 311.857 245.199C312.956 245.203 314.044 245.418 315.062 245.832C316.536 246.42 317.797 247.441 318.679 248.76C319.56 250.08 320.021 251.636 320 253.223V255.968C320.003 257.019 319.798 258.06 319.396 259.031C318.993 260.002 318.402 260.884 317.657 261.625ZM317.657 213.625L301.657 229.625C300.538 230.744 299.113 231.506 297.561 231.814C296.009 232.123 294.401 231.964 292.939 231.359C291.477 230.753 290.228 229.728 289.349 228.412C288.47 227.097 288 225.55 288 223.968V221.223C287.998 220.172 288.203 219.131 288.605 218.16C289.008 217.189 289.599 216.307 290.344 215.566L306.344 199.566C307.054 198.818 307.909 198.223 308.857 197.816C309.805 197.409 310.826 197.199 311.857 197.199C312.956 197.203 314.044 197.418 315.062 197.832C316.536 198.42 317.797 199.441 318.679 200.76C319.56 202.08 320.021 203.636 320 205.223V207.968C320.003 209.019 319.798 210.06 319.396 211.031C318.993 212.002 318.402 212.884 317.657 213.625V213.625ZM253.754 32L251.269 41.9399C250.838 43.6718 249.84 45.2095 248.433 46.3079C247.027 47.4062 245.293 48.0019 243.508 48H156.493C154.708 48.0019 152.974 47.4062 151.568 46.3079C150.161 45.2095 149.163 43.6718 148.732 41.9399L146.247 32H253.754ZM104 194.452V40C104.003 37.879 104.847 35.8456 106.346 34.3458C107.846 32.8461 109.88 32.0024 112 32H129.754L133.209 45.8208C134.502 51.0163 137.497 55.6293 141.717 58.9242C145.937 62.2191 151.139 64.006 156.493 64H243.508C248.862 64.006 254.064 62.2191 258.284 58.9242C262.504 55.6293 265.499 51.0163 266.791 45.8208L270.247 32H288C290.121 32.0024 292.155 32.8461 293.655 34.3458C295.154 35.8456 295.998 37.879 296 40V139.349C295.673 139.644 295.345 139.937 295.03 140.252L279.031 156.252C276.795 158.475 275.022 161.12 273.815 164.033C272.609 166.946 271.992 170.07 272 173.223V88H128V197.89C124.442 195.719 120.48 194.295 116.354 193.704C112.228 193.113 108.025 193.367 104 194.452V194.452ZM285.667 197.616L279.031 204.252C276.795 206.475 275.022 209.12 273.815 212.033C272.609 214.946 271.992 218.07 272 221.223V175.968C271.953 180.509 273.217 184.967 275.641 188.807C278.065 192.647 281.547 195.706 285.667 197.616V197.616ZM256 168V216H240V200H224V216H144V200H168V184H144V104H224V120H208V136H240V104H256V152H232V168H256ZM144 392C141.88 391.998 139.846 391.154 138.346 389.654C136.847 388.154 136.003 386.121 136 384V369.137C136.032 357.576 133.77 346.124 129.346 335.443C124.922 324.762 118.423 315.064 110.226 306.912L104 300.687V278.627C103.998 277.576 104.203 276.535 104.605 275.564C105.008 274.593 105.599 273.711 106.344 272.97L133.657 245.657C137.449 241.879 140.179 237.169 141.57 232H272V223.968C271.953 228.509 273.217 232.967 275.641 236.807C278.065 240.647 281.547 243.706 285.667 245.616L279.031 252.252C276.795 254.475 275.022 257.12 273.815 260.033C272.609 262.946 271.992 266.07 272 269.223V271.968C271.953 276.509 273.217 280.967 275.641 284.807C278.065 288.647 281.547 291.706 285.667 293.616L279.031 300.252C276.795 302.475 275.022 305.12 273.815 308.033C272.609 310.946 271.992 314.07 272 317.223V319.968C271.95 324.726 273.338 329.388 275.982 333.344C278.625 337.301 282.401 340.367 286.816 342.141C289.727 343.357 292.846 343.997 296 344.025V384C295.998 386.121 295.154 388.154 293.655 389.654C292.155 391.154 290.121 391.998 288 392H144ZM480 456C479.993 462.363 477.463 468.463 472.963 472.963C468.464 477.462 462.364 479.993 456 480H296C289.637 479.993 283.537 477.462 279.038 472.963C274.538 468.463 272.008 462.363 272 456V408H288C288.71 408 289.411 407.963 290.106 407.902C291.501 410.358 293.521 412.401 295.962 413.824C298.402 415.246 301.176 415.997 304 416H320C324.242 415.995 328.309 414.308 331.309 411.308C334.308 408.309 335.996 404.242 336 400V384C335.996 379.758 334.308 375.691 331.309 372.692C328.309 369.692 324.242 368.005 320 368H312V337.856C312.329 337.56 312.654 337.255 312.971 336.938L328.97 320.939C331.206 318.716 332.979 316.071 334.186 313.158C335.392 310.245 336.009 307.121 336 303.968V301.223C336.048 296.682 334.784 292.224 332.36 288.383C329.936 284.543 326.455 281.485 322.335 279.575L328.97 272.939C331.206 270.716 332.979 268.071 334.186 265.158C335.392 262.245 336.009 259.121 336 255.968V253.223C336.048 248.682 334.784 244.223 332.36 240.383C329.936 236.543 326.455 233.485 322.335 231.575L328.97 224.939C329.276 224.633 329.571 224.319 329.858 224H464V112H312V80H456C462.364 80.0071 468.464 82.538 472.963 87.0373C477.463 91.5366 479.993 97.637 480 104V456Z" fill="#62E0D9"></path>
<path d="M448 304H432C427.758 304.005 423.691 305.692 420.692 308.692C417.692 311.691 416.005 315.758 416 320V400C416.005 404.242 417.692 408.309 420.692 411.308C423.691 414.308 427.758 415.995 432 416H448C452.242 415.995 456.309 414.308 459.308 411.308C462.308 408.309 463.995 404.242 464 400V320C463.995 315.758 462.308 311.691 459.308 308.692C456.309 305.692 452.242 304.005 448 304V304ZM448 400H432V320H448L448.01 400L448 400Z" fill="#62E0D9"></path>
<path d="M464 440H288V456H464V440Z" fill="#62E0D9"></path>
<path d="M448 240H432C427.758 240.005 423.691 241.692 420.692 244.692C417.692 247.691 416.005 251.758 416 256V272C416.005 276.242 417.692 280.309 420.692 283.308C423.691 286.308 427.758 287.995 432 288H448C452.242 287.995 456.309 286.308 459.308 283.308C462.308 280.309 463.995 276.242 464 272V256C463.995 251.758 462.308 247.691 459.308 244.692C456.309 241.692 452.242 240.005 448 240V240ZM448 272H432V256H448L448.01 272L448 272Z" fill="#62E0D9"></path>
<path d="M368 288H384C388.242 287.995 392.309 286.308 395.308 283.308C398.308 280.309 399.995 276.242 400 272V256C399.995 251.758 398.308 247.691 395.308 244.692C392.309 241.692 388.242 240.005 384 240H368C363.758 240.005 359.691 241.692 356.692 244.692C353.692 247.691 352.005 251.758 352 256V272C352.005 276.242 353.692 280.309 356.692 283.308C359.691 286.308 363.758 287.995 368 288ZM368 256H384L384.01 272L384 272H368V256Z" fill="#62E0D9"></path>
<path d="M368 352H384C388.242 351.995 392.309 350.308 395.308 347.308C398.308 344.309 399.995 340.242 400 336V320C399.995 315.758 398.308 311.691 395.308 308.692C392.309 305.692 388.242 304.005 384 304H368C363.758 304.005 359.691 305.692 356.692 308.692C353.692 311.691 352.005 315.758 352 320V336C352.005 340.242 353.692 344.309 356.692 347.308C359.691 350.308 363.758 351.995 368 352ZM368 320H384L384.01 336L384 336H368V320Z" fill="#62E0D9"></path>
<path d="M368 416H384C388.242 415.995 392.309 414.308 395.308 411.308C398.308 408.309 399.995 404.242 400 400V384C399.995 379.758 398.308 375.691 395.308 372.692C392.309 369.692 388.242 368.005 384 368H368C363.758 368.005 359.691 369.692 356.692 372.692C353.692 375.691 352.005 379.758 352 384V400C352.005 404.242 353.692 408.309 356.692 411.308C359.691 414.308 363.758 415.995 368 416ZM368 384H384L384.01 400L384 400H368V384Z" fill="#62E0D9"></path>
<path d="M208 152H192V168H208V152Z" fill="#62E0D9"></path>
<path d="M176 120H160V136H176V120Z" fill="#62E0D9"></path>
<path d="M192 136H176V152H192V136Z" fill="#62E0D9"></path>
<path d="M176 152H160V168H176V152Z" fill="#62E0D9"></path>
<path d="M224 168H208V184H224V168Z" fill="#62E0D9"></path>
<path d="M200 184H184V200H200V184Z" fill="#62E0D9"></path>
</svg>