<svg xmlns="http://www.w3.org/2000/svg" xml:space="preserve" width="120" height="90" version="1.1" style="shape-rendering:geometricPrecision; text-rendering:geometricPrecision; image-rendering:optimizeQuality; fill-rule:evenodd; clip-rule:evenodd" viewBox="0 0 2000 2000" xmlns:xlink="http://www.w3.org/1999/xlink">
 <defs>
  <style type="text/css">
   
    .fil0 {fill:none}
    .fil2 {fill:#62E0D9}
    .fil1 {fill:#62E0D9}
   
  </style>
 </defs>
 <rect class="fil0" width="2000" height="2000"></rect>
 <g id="Layer_x0020_1">
  <metadata id="CorelCorpID_0Corel-Layer"></metadata>
  <path class="fil1" d="M1827 818c-15,0 -27,-12 -27,-26 0,-151 -59,-293 -165,-399 -107,-107 -248,-165 -399,-165 0,0 0,0 0,0 -15,0 -27,-12 -27,-27 0,-15 12,-27 27,-27 165,0 320,64 436,181 117,117 181,272 181,437 0,14 -12,26 -26,26z"></path>
  <path class="fil1" d="M1633 818c-15,0 -27,-12 -27,-26 0,-99 -38,-192 -108,-262 -70,-70 -163,-109 -262,-109 -15,0 -27,-12 -27,-26 0,-15 12,-27 27,-27 113,0 219,44 299,124 80,80 124,186 124,300 0,14 -12,26 -26,26z"></path>
  <path class="fil1" d="M1439 818c-15,0 -27,-12 -27,-26 0,-47 -18,-92 -51,-125 -34,-33 -78,-52 -125,-52 -15,0 -27,-12 -27,-26 0,-15 12,-27 27,-27 61,0 119,24 162,67 44,44 68,101 68,163 0,14 -12,26 -27,26z"></path>
  <path class="fil1" d="M563 1595c-70,0 -126,-57 -126,-127 0,-15 11,-27 26,-27 15,0 27,12 27,27 0,41 33,74 73,74 41,0 74,-33 74,-74 0,-41 -33,-74 -74,-74 -70,0 -126,-57 -126,-127 0,-70 56,-126 126,-126 70,0 127,56 127,126 0,15 -12,27 -26,27 -15,0 -27,-12 -27,-27 0,-40 -33,-73 -74,-73 -40,0 -73,33 -73,73 0,41 33,74 73,74 70,0 127,57 127,127 0,70 -57,127 -127,127z"></path>
  <path class="fil1" d="M563 1194c-14,0 -26,-12 -26,-27l0 -70c0,-14 12,-26 26,-26 15,0 27,12 27,26l0 70c0,15 -12,27 -27,27z"></path>
  <path class="fil1" d="M563 1665c-14,0 -26,-12 -26,-27l0 -70c0,-14 12,-26 26,-26 15,0 27,12 27,26l0 70c0,15 -12,27 -27,27z"></path>
  <path class="fil2" d="M1400 1826l-1096 0c-87,0 -157,-71 -157,-158l0 -896c0,-87 71,-158 158,-158l716 0c87,0 158,71 158,158l0 138 221 0c86,0 157,70 157,157l0 146c0,14 -12,26 -27,26l-421 0c-71,0 -129,58 -129,129 0,71 58,128 129,128l421 0c15,0 27,12 27,27l0 145c0,87 -70,158 -157,158zm-1095 -1159c-58,0 -105,48 -105,105l0 896c0,58 47,104 104,104l1096 0c57,0 104,-46 104,-104l0 -119 -395 0c-101,0 -182,-81 -182,-181 0,-101 81,-182 182,-182l395 0 0 -119c0,-57 -47,-104 -104,-104l-248 0c-14,0 -26,-12 -26,-27l0 -164c0,-58 -48,-105 -105,-105l-716 0 0 0z"></path>
  <path class="fil2" d="M1152 963l-683 0c-15,0 -27,-12 -27,-27 0,-14 12,-26 27,-26l683 0c15,0 27,12 27,26 0,15 -12,27 -27,27z"></path>
  <path class="fil2" d="M1538 1549l-429 0c-101,0 -182,-81 -182,-181 0,-101 81,-182 182,-182l429 0c49,0 89,40 89,90l0 184c0,49 -40,89 -89,89zm-429 -310c-71,0 -129,58 -129,129 0,71 58,128 129,128l429 0c20,0 36,-16 36,-36l0 -184c0,-20 -16,-37 -36,-37l-429 0z"></path>
  <path class="fil2" d="M1111 1446c-44,0 -79,-35 -79,-78 0,-44 35,-79 79,-79 43,0 78,35 78,79 0,43 -35,78 -78,78zm0 -103c-14,0 -25,11 -25,25 0,14 11,25 25,25 14,0 25,-11 25,-25 0,-14 -12,-25 -25,-25z"></path>
 </g>
</svg>